<?xml version="1.0" encoding="UTF-8" standalone="no"?>
<!DOCTYPE svg PUBLIC "-//W3C//DTD SVG 1.1//EN" "http://www.w3.org/Graphics/SVG/1.1/DTD/svg11.dtd">
<svg width="100%" height="100%" viewBox="0 0 106 105" version="1.1" xmlns="http://www.w3.org/2000/svg" xmlns:xlink="http://www.w3.org/1999/xlink" xml:space="preserve" xmlns:serif="http://www.serif.com/" style="fill-rule:evenodd;clip-rule:evenodd;stroke-linejoin:round;stroke-miterlimit:2;">
    <g transform="matrix(1,0,0,1,-178.397,-544.995)">
        <path d="M243.202,554.762L234.281,563.682L187.317,563.682C187.317,563.682 187.317,640.718 187.317,640.718C187.317,640.718 266.297,640.718 266.297,640.718L266.297,593.295L275.218,584.375L275.218,642.468C275.218,646.428 272.007,649.638 268.047,649.638L185.567,649.638C181.607,649.638 178.397,646.428 178.397,642.468L178.397,561.932C178.397,557.972 181.607,554.762 185.567,554.762L243.202,554.762ZM212.878,600.767L266.234,547.411C269.455,544.19 274.686,544.19 277.907,547.411L281.367,550.871C284.588,554.092 284.588,559.323 281.367,562.544L228.011,615.9L205.312,623.466L212.878,600.767Z" style="fill:white;"/>
    </g>
</svg>
