<?xml version="1.0" encoding="UTF-8" standalone="no"?>
<!DOCTYPE svg PUBLIC "-//W3C//DTD SVG 1.1//EN" "http://www.w3.org/Graphics/SVG/1.1/DTD/svg11.dtd">
<svg width="100%" height="100%" viewBox="0 0 128 163" version="1.1" xmlns="http://www.w3.org/2000/svg" xmlns:xlink="http://www.w3.org/1999/xlink" xml:space="preserve" xmlns:serif="http://www.serif.com/" style="fill-rule:evenodd;clip-rule:evenodd;stroke-linejoin:round;stroke-miterlimit:2;">
    <g transform="matrix(1,0,0,1,-233.677,-198.76)">
        <g transform="matrix(1,0,0,1,0.0830216,-623.013)">
            <path d="M261.425,864.056L261.425,865.738C261.425,870.985 265.678,875.238 270.925,875.238L276.061,875.238L277.283,889.321C276.306,890.342 274.398,891.432 273.559,892.593C270.919,896.244 268.919,900.407 267.559,905.081C266.198,909.755 265.518,914.576 265.518,919.542C265.518,924.508 266.198,929.328 267.559,934.002C268.919,938.676 270.919,942.876 273.559,946.601C276.2,950.325 279.52,953.32 283.521,955.584C287.521,957.848 292.162,958.98 297.442,958.98C302.883,958.98 307.603,957.848 311.604,955.584C315.604,953.32 318.925,950.325 321.565,946.601C324.206,942.876 326.166,938.676 327.446,934.002C328.726,929.328 329.366,924.508 329.366,919.542C329.366,914.722 328.726,909.974 327.446,905.3C326.166,900.626 324.206,896.427 321.565,892.702C320.726,891.518 318.818,890.408 317.841,889.371L319.063,875.238C319.063,875.238 324.2,875.238 324.2,875.238C329.446,875.238 333.7,870.985 333.7,865.738L333.7,864.38C338.094,867.14 341.97,870.373 345.328,874.079C350.689,879.994 354.729,886.86 357.45,894.674C360.17,902.489 361.53,910.778 361.53,919.542C361.53,928.16 360.21,936.303 357.57,943.971C354.929,951.64 351.129,958.322 346.168,964.019C340.248,970.884 333.167,976.033 324.926,979.465C316.685,982.898 307.523,984.614 297.442,984.614C286.881,984.614 277.64,982.861 269.719,979.356C261.798,975.85 255.157,971.14 249.796,965.224C244.436,959.308 240.395,952.407 237.675,944.519C234.955,936.632 233.594,928.306 233.594,919.542C233.594,910.778 234.915,902.452 237.555,894.564C240.195,886.677 244.196,879.775 249.556,873.86C252.975,870.087 256.931,866.819 261.425,864.056Z" style="fill:white;fill-rule:nonzero;"/>
        </g>
        <g transform="matrix(0.678475,0,0,0.873056,95.7004,33.4125)">
            <path d="M315.074,205.936L315.074,189.39L280.216,189.39L280.216,205.936L271.008,205.936L273.008,242.725L285.496,242.725L287.496,286.251L307.794,286.251L309.794,242.725L322.283,242.725L324.283,205.936L315.074,205.936ZM319.011,234.499L276.28,234.499L276.495,238.855L318.795,238.855L319.011,234.499ZM300.006,197.157L295.284,197.157L295.284,205.081L300.006,205.081L300.006,197.157ZM307.006,197.157L302.284,197.157L302.284,205.081L307.006,205.081L307.006,197.157ZM293.006,197.157L288.284,197.157L288.284,205.081L293.006,205.081L293.006,197.157Z" style="fill:white;"/>
        </g>
    </g>
</svg>
