<?xml version="1.0" encoding="UTF-8" standalone="no"?>
<!DOCTYPE svg PUBLIC "-//W3C//DTD SVG 1.1//EN" "http://www.w3.org/Graphics/SVG/1.1/DTD/svg11.dtd">
<svg width="100%" height="100%" viewBox="0 0 106 90" version="1.1" xmlns="http://www.w3.org/2000/svg" xmlns:xlink="http://www.w3.org/1999/xlink" xml:space="preserve" xmlns:serif="http://www.serif.com/" style="fill-rule:evenodd;clip-rule:evenodd;stroke-linejoin:round;stroke-miterlimit:2;">
    <g transform="matrix(1,0,0,1,-642.134,-552.458)">
        <path d="M651.433,560.993L731.151,640.712C733.103,642.663 736.271,642.663 738.222,640.712C740.174,638.76 740.174,635.592 738.222,633.641L658.504,553.922C656.552,551.971 653.384,551.971 651.433,553.922C649.481,555.873 649.481,559.042 651.433,560.993ZM657.81,575.148L663.681,581.02C661.331,582.254 659.201,583.635 657.329,585.145C653.029,588.613 650.134,592.69 650.134,597.317C650.134,601.944 653.029,606.02 657.329,609.489C665.772,616.298 679.469,620.479 694.827,620.479C697.531,620.479 700.182,620.35 702.761,620.099L709.853,627.192C705.092,628.029 700.048,628.479 694.827,628.479C665.745,628.479 642.134,614.516 642.134,597.317C642.134,588.647 648.134,580.799 657.81,575.148ZM679.802,567.442C684.563,566.604 689.607,566.154 694.827,566.154C723.91,566.154 747.52,580.118 747.52,597.317C747.52,605.987 741.521,613.835 731.845,619.485L725.974,613.614C728.324,612.379 730.454,610.999 732.326,609.489C736.626,606.02 739.52,601.944 739.52,597.317C739.52,592.69 736.626,588.613 732.326,585.145C723.883,578.335 710.186,574.154 694.827,574.154C692.124,574.154 689.473,574.284 686.894,574.534L679.802,567.442ZM675.821,593.16L698.985,616.323C697.645,616.615 696.254,616.769 694.827,616.769C684.091,616.769 675.375,608.053 675.375,597.317C675.375,595.89 675.529,594.499 675.821,593.16ZM690.67,578.31C692.01,578.018 693.401,577.864 694.827,577.864C705.564,577.864 714.28,586.581 714.28,597.317C714.28,598.744 714.126,600.135 713.834,601.474L690.67,578.31Z" style="fill:white;"/>
    </g>
</svg>
