<?xml version="1.0" encoding="UTF-8" standalone="no"?>
<!DOCTYPE svg PUBLIC "-//W3C//DTD SVG 1.1//EN" "http://www.w3.org/Graphics/SVG/1.1/DTD/svg11.dtd">
<svg width="100%" height="100%" viewBox="0 0 660 173" version="1.1" xmlns="http://www.w3.org/2000/svg" xmlns:xlink="http://www.w3.org/1999/xlink" xml:space="preserve" xmlns:serif="http://www.serif.com/" style="fill-rule:evenodd;clip-rule:evenodd;stroke-linejoin:round;stroke-miterlimit:2;">
    <g transform="matrix(1,0,0,1,-107.421,-189.39)">
        <g transform="matrix(0.833436,0,0,0.760761,-218.626,-110.899)">
            <path d="M396.681,616.481C394.953,616.481 393.609,616.289 392.649,615.905C391.689,615.521 391.209,613.985 391.209,611.297L391.209,401.057C391.209,398.945 391.449,397.361 391.929,396.305C392.409,395.249 393.993,394.721 396.681,394.721L447.945,394.721C458.697,394.721 468.441,395.921 477.177,398.321C485.913,400.721 493.353,404.321 499.497,409.121C505.641,413.921 510.393,420.017 513.753,427.409C517.113,434.801 518.793,443.393 518.793,453.185C518.793,457.985 518.073,462.737 516.633,467.441C515.193,472.145 513.129,476.561 510.441,480.689C507.753,484.817 504.489,488.561 500.649,491.921C496.809,495.281 492.489,498.113 487.689,500.417C493.449,502.529 498.585,505.313 503.097,508.769C507.609,512.225 511.449,516.113 514.617,520.433C517.785,524.753 520.185,529.313 521.817,534.113C523.449,538.913 524.265,543.713 524.265,548.513C524.265,570.401 517.353,587.201 503.529,598.913C489.705,610.625 468.777,616.481 440.745,616.481L396.681,616.481ZM430.377,429.569L430.377,485.153L443.049,485.153C449.961,485.153 455.721,484.385 460.329,482.849C464.937,481.313 468.633,479.201 471.417,476.513C474.201,473.825 476.169,470.705 477.321,467.153C478.473,463.601 479.049,459.713 479.049,455.489C479.049,452.033 478.569,448.721 477.609,445.553C476.649,442.385 474.969,439.649 472.569,437.345C470.169,435.041 466.953,433.169 462.921,431.729C458.889,430.289 453.897,429.569 447.945,429.569L430.377,429.569ZM429.801,517.409L429.801,581.633L441.321,581.633C449.961,581.633 457.065,580.817 462.633,579.185C468.201,577.553 472.665,575.345 476.025,572.561C479.385,569.777 481.737,566.417 483.081,562.481C484.425,558.545 485.097,554.273 485.097,549.665C485.097,545.057 484.377,540.785 482.937,536.849C481.497,532.913 479.001,529.505 475.449,526.625C471.897,523.745 467.097,521.489 461.049,519.857C455.001,518.225 447.465,517.409 438.441,517.409L429.801,517.409Z" style="fill:white;fill-rule:nonzero;"/>
        </g>
        <g transform="matrix(1,0,0,1,0.0830216,-623.013)">
            <path d="M261.425,864.056L261.425,865.738C261.425,870.985 265.678,875.238 270.925,875.238L276.061,875.238L277.283,889.321C276.306,890.342 274.398,891.432 273.559,892.593C270.919,896.244 268.919,900.407 267.559,905.081C266.198,909.755 265.518,914.576 265.518,919.542C265.518,924.508 266.198,929.328 267.559,934.002C268.919,938.676 270.919,942.876 273.559,946.601C276.2,950.325 279.52,953.32 283.521,955.584C287.521,957.848 292.162,958.98 297.442,958.98C302.883,958.98 307.603,957.848 311.604,955.584C315.604,953.32 318.925,950.325 321.565,946.601C324.206,942.876 326.166,938.676 327.446,934.002C328.726,929.328 329.366,924.508 329.366,919.542C329.366,914.722 328.726,909.974 327.446,905.3C326.166,900.626 324.206,896.427 321.565,892.702C320.726,891.518 318.818,890.408 317.841,889.371L319.063,875.238C319.063,875.238 324.2,875.238 324.2,875.238C329.446,875.238 333.7,870.985 333.7,865.738L333.7,864.38C338.094,867.14 341.97,870.373 345.328,874.079C350.689,879.994 354.729,886.86 357.45,894.674C360.17,902.489 361.53,910.778 361.53,919.542C361.53,928.16 360.21,936.303 357.57,943.971C354.929,951.64 351.129,958.322 346.168,964.019C340.248,970.884 333.167,976.033 324.926,979.465C316.685,982.898 307.523,984.614 297.442,984.614C286.881,984.614 277.64,982.861 269.719,979.356C261.798,975.85 255.157,971.14 249.796,965.224C244.436,959.308 240.395,952.407 237.675,944.519C234.955,936.632 233.594,928.306 233.594,919.542C233.594,910.778 234.915,902.452 237.555,894.564C240.195,886.677 244.196,879.775 249.556,873.86C252.975,870.087 256.931,866.819 261.425,864.056Z" style="fill:white;fill-rule:nonzero;"/>
        </g>
        <g transform="matrix(0.678475,0,0,0.873056,95.7004,33.4125)">
            <path d="M315.074,205.936L315.074,189.39L280.216,189.39L280.216,205.936L271.008,205.936L273.008,242.725L285.496,242.725L287.496,286.251L307.794,286.251L309.794,242.725L322.283,242.725L324.283,205.936L315.074,205.936ZM319.011,234.499L276.28,234.499L276.495,238.855L318.795,238.855L319.011,234.499ZM300.006,197.157L295.284,197.157L295.284,205.081L300.006,205.081L300.006,197.157ZM307.006,197.157L302.284,197.157L302.284,205.081L307.006,205.081L307.006,197.157ZM293.006,197.157L288.284,197.157L288.284,205.081L293.006,205.081L293.006,197.157Z" style="fill:white;"/>
        </g>
        <g transform="matrix(0.833436,0,0,0.760761,-261.626,-110.899)">
            <path d="M741.317,472.823C747.316,466.301 754.55,461.052 763.017,457.073C772.617,452.561 783.753,450.305 796.425,450.305C809.097,450.305 820.233,452.609 829.833,457.217C839.433,461.825 847.449,468.017 853.881,475.793C860.313,483.569 865.161,492.593 868.425,502.865C871.689,513.137 873.321,524.033 873.321,535.553C873.321,546.881 871.737,557.585 868.569,567.665C865.401,577.745 860.841,586.529 854.889,594.017C847.785,603.041 839.289,609.809 829.401,614.321C819.513,618.833 808.521,621.089 796.425,621.089C783.753,621.089 772.665,618.785 763.161,614.177C754.711,610.08 747.475,604.731 741.461,598.123C742.673,596.823 743.835,595.449 744.961,594.017C750.913,586.529 755.473,577.745 758.641,567.665C759.74,564.171 760.648,560.601 761.293,556.938C762.845,562.146 765.017,566.869 767.769,571.121C770.937,576.017 774.921,579.953 779.721,582.929C784.521,585.905 790.089,587.393 796.425,587.393C802.953,587.393 808.617,585.905 813.417,582.929C818.217,579.953 822.201,576.017 825.369,571.121C828.537,566.225 830.889,560.705 832.425,554.561C833.961,548.417 834.729,542.081 834.729,535.553C834.729,529.217 833.961,522.977 832.425,516.833C830.889,510.689 828.537,505.169 825.369,500.273C822.201,495.377 818.217,491.441 813.417,488.465C808.617,485.489 802.953,484.001 796.425,484.001C790.089,484.001 784.521,485.489 779.721,488.465C774.921,491.441 770.937,495.329 767.769,500.129C765.02,504.294 762.85,508.964 761.298,514.155C760.625,510.3 759.666,506.543 758.497,502.865C755.233,492.593 750.385,483.569 743.953,475.793L741.317,472.823Z" style="fill:white;"/>
        </g>
        <g transform="matrix(0.833436,0,0,0.760761,-264.626,-110.899)">
            <path d="M979.305,614.465C975.465,616.193 970.857,617.681 965.481,618.929C960.105,620.177 953.961,620.705 947.049,620.513C939.945,620.321 933.513,618.545 927.753,615.185C921.993,611.825 917.769,607.745 915.081,602.945C912.393,597.377 910.761,591.089 910.185,584.081C909.609,577.073 909.321,568.001 909.321,556.865L909.321,488.897L888.873,488.897C885.225,488.897 883.401,486.977 883.401,483.137L883.401,459.233C883.401,455.393 885.225,453.473 888.873,453.473L909.321,453.473L909.321,415.169C909.321,411.329 911.241,409.409 915.081,409.409L941.577,409.409C945.225,409.409 947.049,411.329 947.049,415.169L947.049,453.473L971.529,453.473C973.833,453.473 975.321,453.905 975.993,454.769C976.665,455.633 977.001,457.121 977.001,459.233L977.001,483.137C977.001,485.249 976.665,486.737 975.993,487.601C975.321,488.465 973.833,488.897 971.529,488.897L947.049,488.897L947.049,570.257C947.049,574.577 947.241,577.409 947.625,578.753C948.393,582.401 950.025,584.705 952.521,585.665C955.017,586.625 957.705,586.913 960.585,586.529C963.465,586.145 966.249,585.473 968.937,584.513C971.625,583.553 973.737,582.689 975.273,581.921C976.809,581.153 977.961,581.105 978.729,581.777C979.497,582.449 979.977,583.841 980.169,585.953L982.761,607.553C982.953,609.281 982.857,610.673 982.473,611.729C982.089,612.785 981.033,613.697 979.305,614.465Z" style="fill:white;fill-rule:nonzero;"/>
        </g>
        <g transform="matrix(0.833436,0,0,0.760761,-260.626,-110.899)">
            <path d="M1125.61,541.313C1125.42,543.617 1124.89,545.393 1124.03,546.641C1123.16,547.889 1121.58,548.513 1119.27,548.513L1029.13,548.513C1030.47,561.377 1034.55,570.881 1041.37,577.025C1048.18,583.169 1056.3,586.433 1065.7,586.817C1074.54,587.201 1082.27,586.337 1088.89,584.225C1095.51,582.113 1101.9,579.137 1108.04,575.297C1110.73,573.569 1112.55,573.089 1113.51,573.857C1114.47,574.625 1114.95,576.641 1114.95,579.905L1114.95,601.505C1114.95,603.617 1114.71,605.057 1114.23,605.825C1113.75,606.593 1112.65,607.649 1110.92,608.993C1105.35,612.833 1098.3,615.713 1089.75,617.633C1081.21,619.553 1072.81,620.513 1064.55,620.513C1041.51,620.513 1023.32,613.121 1009.98,598.337C996.633,583.553 989.961,562.529 989.961,535.265C989.961,525.089 991.305,514.913 993.993,504.737C996.681,494.561 1001,485.393 1006.95,477.233C1012.9,469.073 1020.2,462.449 1028.84,457.361C1037.48,452.273 1047.75,449.729 1059.66,449.729C1071.75,449.729 1081.98,451.937 1090.33,456.353C1098.68,460.769 1105.5,466.721 1110.78,474.209C1116.06,481.697 1119.85,490.385 1122.15,500.273C1124.46,510.161 1125.61,520.673 1125.61,531.809L1125.61,541.313ZM1060.52,483.137C1056.49,483.137 1052.75,484.097 1049.29,486.017C1045.83,487.937 1042.81,490.433 1040.22,493.505C1037.62,496.577 1035.37,500.129 1033.45,504.161C1031.53,508.193 1030.28,512.417 1029.7,516.833L1088.17,516.833C1088.17,512.993 1087.55,509.057 1086.3,505.025C1085.05,500.993 1083.32,497.393 1081.11,494.225C1078.9,491.057 1076.07,488.417 1072.62,486.305C1069.16,484.193 1065.13,483.137 1060.52,483.137Z" style="fill:white;fill-rule:nonzero;"/>
        </g>
        <g transform="matrix(0.833436,0,0,0.760761,-262.626,-110.899)">
            <path d="M1229.58,489.761C1225.93,488.225 1222.57,487.313 1219.5,487.025C1216.42,486.737 1213.74,486.977 1211.43,487.745C1206.83,489.281 1203.13,491.777 1200.35,495.233C1197.56,498.689 1195.45,502.721 1194.01,507.329C1192.57,511.937 1191.66,516.737 1191.27,521.729C1190.89,526.721 1190.7,531.521 1190.7,536.129L1190.7,610.433C1190.7,612.737 1190.36,614.321 1189.69,615.185C1189.02,616.049 1187.62,616.481 1185.51,616.481L1157.87,616.481C1155.75,616.481 1154.41,616.097 1153.83,615.329C1153.26,614.561 1152.97,612.833 1152.97,610.145L1152.97,496.097C1152.97,489.953 1152.87,483.521 1152.68,476.801C1152.49,470.081 1152.39,464.513 1152.39,460.097C1152.39,457.601 1152.78,455.969 1153.55,455.201C1154.31,454.433 1155.75,454.049 1157.87,454.049L1185.51,454.049C1188.39,454.049 1189.83,455.585 1189.83,458.657L1189.83,469.601C1192.33,465.953 1195.5,462.401 1199.34,458.945C1203.18,455.489 1207.21,453.377 1211.43,452.609C1215.46,451.841 1219.45,451.601 1223.38,451.889C1227.32,452.177 1230.35,453.089 1232.46,454.625C1233.42,455.393 1234.04,456.113 1234.33,456.785C1234.62,457.457 1234.76,458.561 1234.76,460.097L1234.76,485.153C1234.76,487.265 1234.38,488.801 1233.61,489.761C1232.84,490.721 1231.5,490.721 1229.58,489.761Z" style="fill:white;fill-rule:nonzero;"/>
        </g>
    </g>
</svg>
