<?xml version="1.0" encoding="UTF-8" standalone="no"?>
<!DOCTYPE svg PUBLIC "-//W3C//DTD SVG 1.1//EN" "http://www.w3.org/Graphics/SVG/1.1/DTD/svg11.dtd">
<svg width="100%" height="100%" viewBox="0 0 106 63" version="1.1" xmlns="http://www.w3.org/2000/svg" xmlns:xlink="http://www.w3.org/1999/xlink" xml:space="preserve" xmlns:serif="http://www.serif.com/" style="fill-rule:evenodd;clip-rule:evenodd;stroke-linejoin:round;stroke-miterlimit:2;">
    <g transform="matrix(1,0,0,1,-495.225,-566.154)">
        <path d="M547.918,566.154C577,566.154 600.611,580.118 600.611,597.317C600.611,614.516 577,628.479 547.918,628.479C518.836,628.479 495.225,614.516 495.225,597.317C495.225,580.118 518.836,566.154 547.918,566.154ZM547.918,574.154C563.277,574.154 576.974,578.335 585.416,585.145C589.717,588.613 592.611,592.69 592.611,597.317C592.611,601.944 589.717,606.02 585.416,609.489C576.974,616.298 563.277,620.479 547.918,620.479C532.56,620.479 518.862,616.298 510.42,609.489C506.119,606.02 503.225,601.944 503.225,597.317C503.225,592.69 506.119,588.613 510.42,585.145C518.862,578.335 532.56,574.154 547.918,574.154ZM547.918,577.864C558.654,577.864 567.37,586.581 567.37,597.317C567.37,608.053 558.654,616.769 547.918,616.769C537.182,616.769 528.466,608.053 528.466,597.317C528.466,586.581 537.182,577.864 547.918,577.864ZM547.918,587.578C553.293,587.578 557.657,591.942 557.657,597.317C557.657,602.692 553.293,607.055 547.918,607.055C542.543,607.055 538.18,602.692 538.18,597.317C538.18,591.942 542.543,587.578 547.918,587.578Z" style="fill:white;"/>
    </g>
</svg>
