<?xml version="1.0" encoding="UTF-8" standalone="no"?>
<!DOCTYPE svg PUBLIC "-//W3C//DTD SVG 1.1//EN" "http://www.w3.org/Graphics/SVG/1.1/DTD/svg11.dtd">
<svg width="100%" height="100%" viewBox="0 0 106 105" version="1.1" xmlns="http://www.w3.org/2000/svg" xmlns:xlink="http://www.w3.org/1999/xlink" xml:space="preserve" xmlns:serif="http://www.serif.com/" style="fill-rule:evenodd;clip-rule:evenodd;stroke-linejoin:round;stroke-miterlimit:2;">
    <g transform="matrix(1,0,0,1,-333.678,-544.995)">
        <g transform="matrix(1.31436,0,0,1.16078,-145.626,-104.449)">
            <path d="M390.614,565.743L368.734,565.743C366.489,565.743 364.666,567.566 364.666,569.811L364.666,582.098C364.666,584.343 366.489,586.166 368.734,586.166L373.823,586.166L373.823,636.82C373.823,643.895 379.567,649.638 386.641,649.638L422.871,649.638C429.946,649.638 435.69,643.895 435.69,636.82L435.69,586.166L440.779,586.166C443.024,586.166 444.846,584.343 444.846,582.098L444.846,569.811C444.846,567.566 443.024,565.743 440.779,565.743L418.899,565.743L418.899,565.146C418.899,562.024 416.364,559.489 413.242,559.489L396.27,559.489C393.148,559.489 390.614,562.024 390.614,565.146L390.614,565.743ZM392.501,595.991C392.501,593.447 390.435,591.381 387.891,591.381C385.347,591.381 383.281,593.447 383.281,595.991L383.281,629.554C383.281,632.098 385.347,634.164 387.891,634.164C390.435,634.164 392.501,632.098 392.501,629.554L392.501,595.991ZM409.366,595.991C409.366,593.447 407.301,591.381 404.756,591.381C402.212,591.381 400.147,593.447 400.147,595.991L400.147,629.554C400.147,632.098 402.212,634.164 404.756,634.164C407.301,634.164 409.366,632.098 409.366,629.554L409.366,595.991ZM426.231,595.991C426.231,593.447 424.166,591.381 421.622,591.381C419.077,591.381 417.012,593.447 417.012,595.991L417.012,629.554C417.012,632.098 419.077,634.164 421.622,634.164C424.166,634.164 426.231,632.098 426.231,629.554L426.231,595.991Z" style="fill:white;"/>
        </g>
    </g>
</svg>
